inDegrees=no
num_controls=7
num_derivatives=13
num_iterations=144
num_multipliers=7
num_parameters=0
num_slacks=7
num_states=26
objective=5.111584
objective_accelerations=0.545432
objective_balance=0.033194
objective_effort=0.314521
objective_height=4.196921
objective_ligament=0.021515
solver_duration=1589.727363
status=Solve_Succeeded
success=true
DataType=double
version=3
OpenSimVersion=4.4-2022-07-23-0e9fedc
endheader
time	/jointset/ground_pelvis/pelvis_tilt/value	/jointset/ground_pelvis/pelvis_tx/value	/jointset/ground_pelvis/pelvis_ty/value	/jointset/hip_l/hip_flexion_l/value	/jointset/hip_l/hip_adduction_l/value	/jointset/hip_l/hip_rotation_l/value	/jointset/back/lumbar_extension/value	/jointset/patellofemoral_l/patellar_flexion_l/value	/jointset/knee_l/knee_flexion_l/value	/jointset/knee_l/knee_adduction_l/value	/jointset/knee_l/knee_rotation_l/value	/jointset/ankle_l/ankle_angle_l/value	/jointset/subtalar_l/subtalar_angle_l/value	/jointset/ground_pelvis/pelvis_tilt/speed	/jointset/ground_pelvis/pelvis_tx/speed	/jointset/ground_pelvis/pelvis_ty/speed	/jointset/hip_l/hip_flexion_l/speed	/jointset/hip_l/hip_adduction_l/speed	/jointset/hip_l/hip_rotation_l/speed	/jointset/back/lumbar_extension/speed	/jointset/patellofemoral_l/patellar_flexion_l/speed	/jointset/knee_l/knee_flexion_l/speed	/jointset/knee_l/knee_adduction_l/speed	/jointset/knee_l/knee_rotation_l/speed	/jointset/ankle_l/ankle_angle_l/speed	/jointset/subtalar_l/subtalar_angle_l/speed	/forceset/tau_hip_flexion_l	/forceset/tau_hip_adduction_l	/forceset/tau_hip_rotation_l	/forceset/tau_knee_flexion_l	/forceset/tau_ankle_angle_l	/forceset/tau_subtalar_angle_l	/forceset/tau_lumbar_extension	lambda_cid13_p0	lambda_cid13_p1	lambda_cid13_p2	lambda_cid13_p3	lambda_cid13_p4	lambda_cid13_p5	lambda_cid14_p0	/jointset/ground_pelvis/pelvis_tilt/accel	/jointset/ground_pelvis/pelvis_tx/accel	/jointset/ground_pelvis/pelvis_ty/accel	/jointset/hip_l/hip_flexion_l/accel	/jointset/hip_l/hip_adduction_l/accel	/jointset/hip_l/hip_rotation_l/accel	/jointset/back/lumbar_extension/accel	/jointset/patellofemoral_l/patellar_flexion_l/accel	/jointset/knee_l/knee_flexion_l/accel	/jointset/knee_l/knee_adduction_l/accel	/jointset/knee_l/knee_rotation_l/accel	/jointset/ankle_l/ankle_angle_l/accel	/jointset/subtalar_l/subtalar_angle_l/accel	gamma_cid13_p0	gamma_cid13_p1	gamma_cid13_p2	gamma_cid13_p3	gamma_cid13_p4	gamma_cid13_p5	gamma_cid14_p0
0.5	-0.428684043407857	-0.09426701685002856	0.7731652744003183	1.122318336472545	-0.4234156746125149	-0.3016219453059566	-0.2552144786769484	0.583404937053967	0.5834049370541718	-0.1744746135033098	-0.1616578915257688	-0.08097713506978055	-0.1120948694056061	-1.032869722602265	-0.3657733775885574	-0.4568432772706326	2.50441680625957	-0.2221099845711675	0.5443038372470372	-0.109190893451042	1.386645847286423	1.386645847286386	-0.0006950672218168774	-0.0747979866884451	-0.01717894601990496	-0.2416813347465511	-0.2078211174102033	0.001114195708044724	-0.004507291272186166	-0.1715903551962647	0.1306563835803715	0.06029782075980596	0.1919201344976271	7.690466179764242	-30.02303534158759	7.293780174412413	-9.592787148610574	-526.6293010346839	-70.95448819060177	-35.2940772197419	0.8023467338484523	0.6779675425120433	-0.2856826504916189	-1.564939939288781	0.4622631532225222	-0.04973698195788265	1.102889221463052	-0.8929316979715413	-0.8929316979717336	0.01744127501682631	0.2064416543065212	0.05566068405559939	0.5280222144076324	4.611882271959235e-08	-5.33914952521833e-07	-9.320329952210889e-08	-2.027785551470243e-07	-1.209065288011596e-07	1.762126793881641e-07	-7.882328207524389e-08
0.51	-0.4389703859642117	-0.09789042742474516	0.7685835287183613	1.147279850064292	-0.4256139717762571	-0.2961831606326597	-0.2562525046267384	0.5972250732969255	0.5972250732970847	-0.1744813630002151	-0.1623967862678033	-0.08114631017738101	-0.1144856895420659	-1.024251018380913	-0.3588736892094581	-0.4594104298539416	2.487547122617119	-0.2175254646769721	0.5433865199738191	-0.09846506365452326	1.377193590553092	1.377193590553077	-0.0006547110850170443	-0.07297006060086965	-0.01666723159935229	-0.236465624715852	-0.2144595586710713	0.001882438453489074	-0.004353939878875817	-0.1729461337506079	0.1323993134896161	0.06170530746664359	0.1967968693969483	8.036549550152145	-30.63610883902429	7.324363220054301	-9.89689490113769	-529.9050685340571	-70.76721532423835	-34.77249073212954	0.9138092255082496	0.7011865223824401	-0.227940296560233	-1.798790230996839	0.4602488851920989	-0.1227833454120827	1.049814786152127	-0.9995286467133782	-0.9995286467100079	-0.002758604931288825	0.1726271535293182	0.04725264803174516	0.52099834980217	4.857558138832401e-08	-5.177412397697137e-07	-1.149972815169639e-07	-2.027714847664408e-07	-1.069645233277491e-07	1.774171884633185e-07	-7.529355240640806e-08
0.52	-0.4491661060865021	-0.101443797708316	0.763978969763709	1.172062505288838	-0.4277656832455018	-0.2907555599811579	-0.2571847952930579	0.6109450557754711	0.610945055775462	-0.1744877272136703	-0.1631170699352225	-0.08131070297536758	-0.116823821987739	-1.014745235790391	-0.3517653193594162	-0.4614059318095106	2.46864513280372	-0.2127928456758583	0.5420670328842924	-0.08804383676177514	1.366615094391782	1.366615094391789	-0.000618010465912727	-0.07107577181145723	-0.01622248409973821	-0.2311437965891096	-0.2210979999311824	0.002650681199099845	-0.004200588486933163	-0.1743019123047358	0.1341422433988723	0.06311279417367055	0.2016736042969524	8.373096776820551	-31.2478369862039	7.355102246916878	-10.17572978940444	-533.3130267512602	-70.60215691446778	-34.23747533863618	0.979762407682369	0.7197038367006748	-0.1713525249435968	-1.971401173478604	0.4918829746060918	-0.1301709452196762	1.041968640708995	-1.118179583567357	-1.118179583567322	0.01671017147772812	0.2197141946738311	0.0422672998680353	0.5492458336163638	5.545739624086981e-08	-5.068240117276098e-07	-1.550923103921627e-07	-2.064991497063328e-07	-8.947326143793625e-08	1.756068562177791e-07	-6.954415750900493e-08
0.53	-0.4592624903021477	-0.1049251183298229	0.759357316636168	1.196646278300189	-0.4298693245679969	-0.2853432558812521	-0.2580144654089558	0.6245537795567871	0.6245537795568493	-0.1744935398227349	-0.1638181635457378	-0.08147095167341277	-0.1191081843079442	-1.004388761903235	-0.3444705648563233	-0.4628275966073481	2.44778122999349	-0.2079160432056055	0.5403251306570065	-0.07795916310516024	1.354950279353364	1.354950279353342	-0.0005447081411735628	-0.06913482483696019	-0.01583799197774167	-0.2257160311954638	-0.227574363039627	0.003334656684590656	-0.00407083841311765	-0.1756304641609007	0.1359245922447927	0.06437769681795498	0.206373981750797	8.726893532601441	-31.80581878531012	7.383163960264457	-10.43274879338653	-536.5926994207599	-70.33827984704038	-33.6913345099499	1.085029312729458	0.7385555788465258	-0.1130249506331808	-2.19310818912132	0.488594756578334	-0.2065547523394861	0.9813702249942849	-1.217526537233756	-1.217526537238298	0.002499278937623249	0.1825107348195386	0.034927242446235	0.5415360971104908	5.683455284925808e-08	-4.860077358781779e-07	-1.725629966173107e-07	-2.036019431833252e-07	-7.637339789866879e-08	1.740694845812704e-07	-6.551405459374826e-08
0.54	-0.4692510218922158	-0.1083326525419523	0.7547243565619619	1.221011567612564	-0.4319235946911159	-0.2799504417817813	-0.2587453580889173	0.6380404763731053	0.6380404763731985	-0.1744986476055191	-0.1644996025291663	-0.08162767803541397	-0.1213378701332391	-0.9931747106762199	-0.3370080374839173	-0.4636673211423374	2.424948393010186	-0.2029186058016294	0.5381690327954785	-0.06828834957428881	1.342209701384756	1.342209701384704	-0.0004770451777985783	-0.06714484642319357	-0.01551801689251647	-0.2202084976069471	-0.2340507261481604	0.00401863217011874	-0.003941088340144702	-0.1769590160169286	0.137706941090758	0.06564259946230647	0.211074359204512	9.071101803584638	-32.36236843277982	7.411279083654913	-10.66402370950846	-540.0095925141687	-70.0955900125403	-33.13634905425802	1.151277875653838	0.7532584105633887	-0.05496447237398158	-2.365188008093488	0.516009961350727	-0.2130100720681995	0.9591966155602234	-1.333332169605444	-1.333332169605362	0.01558229920495041	0.2295204825276501	0.02936389251394529	0.5651994725906166	5.212144927262093e-08	-4.542393220291487e-07	-1.650024952296362e-07	-1.933750916375349e-07	-6.813210274723886e-08	1.728341119164551e-07	-6.338614706299409e-08
